<svg width="20" height="18" viewBox="0 0 20 18" fill="none" xmlns="http://www.w3.org/2000/svg">
<path d="M19.1668 14.8333C19.1668 15.2754 18.9912 15.6993 18.6787 16.0118C18.3661 16.3244 17.9422 16.5 17.5002 16.5H2.50016C2.05814 16.5 1.63421 16.3244 1.32165 16.0118C1.00909 15.6993 0.833496 15.2754 0.833496 14.8333V5.66667C0.833496 5.22464 1.00909 4.80072 1.32165 4.48816C1.63421 4.17559 2.05814 4 2.50016 4H5.8335L7.50016 1.5H12.5002L14.1668 4H17.5002C17.9422 4 18.3661 4.17559 18.6787 4.48816C18.9912 4.80072 19.1668 5.22464 19.1668 5.66667V14.8333Z" stroke="#1E1E1E" stroke-width="2" stroke-linecap="round" stroke-linejoin="round"/>
<path d="M10.0002 13.1667C11.8411 13.1667 13.3335 11.6743 13.3335 9.83333C13.3335 7.99238 11.8411 6.5 10.0002 6.5C8.15921 6.5 6.66683 7.99238 6.66683 9.83333C6.66683 11.6743 8.15921 13.1667 10.0002 13.1667Z" stroke="#1E1E1E" stroke-width="2" stroke-linecap="round" stroke-linejoin="round"/>
</svg>
