<svg width="15" height="16" viewBox="0 0 15 16" fill="none" xmlns="http://www.w3.org/2000/svg">
<path d="M13.7929 7.36665L7.66621 13.4933C6.91565 14.2439 5.89766 14.6655 4.83621 14.6655C3.77475 14.6655 2.75677 14.2439 2.00621 13.4933C1.25565 12.7428 0.833984 11.7248 0.833984 10.6633C0.833984 9.60186 1.25565 8.58388 2.00621 7.83332L8.13287 1.70665C8.63325 1.20628 9.3119 0.925171 10.0195 0.925171C10.7272 0.925171 11.4058 1.20628 11.9062 1.70665C12.4066 2.20703 12.6877 2.88568 12.6877 3.59332C12.6877 4.30096 12.4066 4.97961 11.9062 5.47999L5.77287 11.6067C5.52269 11.8568 5.18336 11.9974 4.82954 11.9974C4.47572 11.9974 4.1364 11.8568 3.88621 11.6067C3.63602 11.3565 3.49547 11.0171 3.49547 10.6633C3.49547 10.3095 3.63602 9.97017 3.88621 9.71999L9.54621 4.06665" stroke="#1E1E1E" stroke-width="1.6" stroke-linecap="round" stroke-linejoin="round"/>
</svg>
