<svg width="28" height="28" viewBox="0 0 28 28" fill="none" xmlns="http://www.w3.org/2000/svg">
<path d="M25.6664 15.0533C25.4566 17.3229 24.6049 19.4859 23.2107 21.2891C21.8166 23.0922 19.9377 24.4611 17.794 25.2354C15.6503 26.0097 13.3304 26.1575 11.1057 25.6615C8.88106 25.1654 6.8437 24.0461 5.23201 22.4344C3.62031 20.8227 2.50096 18.7853 2.00492 16.5607C1.50887 14.336 1.65666 12.0161 2.43099 9.8724C3.20531 7.72868 4.57415 5.84982 6.37732 4.45567C8.1805 3.06152 10.3434 2.20974 12.613 2C11.2843 3.79769 10.6448 6.0126 10.8111 8.24189C10.9773 10.4712 11.9382 12.5667 13.5189 14.1475C15.0996 15.7282 17.1952 16.689 19.4245 16.8553C21.6538 17.0215 23.8687 16.3821 25.6664 15.0533Z" stroke="#F19EDC" stroke-width="3" stroke-linecap="round" stroke-linejoin="round"/>
</svg>
