<svg width="33" height="32" viewBox="0 0 33 32" fill="none" xmlns="http://www.w3.org/2000/svg">
<path d="M28.3334 2.66666L25.6667 5.33332M25.6667 5.33332L29.6667 9.33332L25 14L21 9.99999M25.6667 5.33332L21 9.99999M15.52 15.48C16.2085 16.1593 16.7558 16.968 17.1304 17.8597C17.505 18.7514 17.6995 19.7083 17.7027 20.6755C17.706 21.6427 17.5179 22.6009 17.1493 23.4951C16.7806 24.3892 16.2388 25.2016 15.5549 25.8855C14.871 26.5694 14.0586 27.1113 13.1644 27.4799C12.2703 27.8485 11.312 28.0366 10.3449 28.0334C9.37773 28.0301 8.42076 27.8356 7.5291 27.461C6.63743 27.0864 5.82866 26.5391 5.14937 25.8507C3.81355 24.4676 3.07439 22.6152 3.0911 20.6924C3.10781 18.7696 3.87904 16.9303 5.2387 15.5707C6.59836 14.211 8.43766 13.4398 10.3604 13.423C12.2832 13.4063 14.1356 14.1455 15.5187 15.4813L15.52 15.48ZM15.52 15.48L21 9.99999" stroke="#F19EDC" stroke-width="3" stroke-linecap="round" stroke-linejoin="round"/>
</svg>
