<svg width="27" height="28" viewBox="0 0 27 28" fill="none" xmlns="http://www.w3.org/2000/svg">
<path d="M24.6667 3.33333L8.82667 19.1733M17.2933 17.3067L24.6667 24.6667M8.82667 8.82667L14 14M10 6C10 8.20914 8.20914 10 6 10C3.79086 10 2 8.20914 2 6C2 3.79086 3.79086 2 6 2C8.20914 2 10 3.79086 10 6ZM10 22C10 24.2091 8.20914 26 6 26C3.79086 26 2 24.2091 2 22C2 19.7909 3.79086 18 6 18C8.20914 18 10 19.7909 10 22Z" stroke="#F19EDC" stroke-width="3" stroke-linecap="round" stroke-linejoin="round"/>
</svg>
